<?xml version="1.0" standalone="no"?>
<!DOCTYPE svg PUBLIC "-//W3C//DTD SVG 20010904//EN"
 "http://www.w3.org/TR/2001/REC-SVG-20010904/DTD/svg10.dtd">
<svg version="1.0" xmlns="http://www.w3.org/2000/svg"
 width="200.000000pt" height="200.000000pt" viewBox="0 0 200.000000 200.000000"
 preserveAspectRatio="xMidYMid meet">
<metadata>
Created by potrace 1.14, written by Peter Selinger 2001-2017
</metadata>
<g transform="translate(0.000000,200.000000) scale(0.100000,-0.100000)"
fill="#000000" stroke="none">
<path d="M806 1934 c-348 -77 -617 -327 -723 -671 -25 -81 -27 -101 -27 -263
0 -163 2 -181 28 -265 98 -322 344 -562 672 -657 68 -20 101 -23 244 -23 141
0 176 4 244 23 351 101 616 381 687 727 65 316 -31 638 -260 866 -123 122
-257 202 -422 250 -99 29 -341 36 -443 13z m433 -888 c149 -255 229 -401 225
-411 -19 -48 -48 -9 -258 348 -116 196 -215 356 -221 354 -10 -4 -385 -635
-385 -649 0 -4 130 -8 289 -8 250 0 292 -2 305 -16 20 -19 20 -19 0 -38 -13
-14 -57 -16 -330 -16 -304 0 -354 4 -354 31 0 7 388 676 451 777 7 12 21 22
30 22 11 0 93 -130 248 -394z"/>
</g>
</svg>
